<svg xmlns="http://www.w3.org/2000/svg" viewBox="0 0 200.47 239.85"><title>android</title><g id="Layer_2" data-name="Layer 2"><g id="Layer_1-2" data-name="Layer 1"><path d="M144.88,0a4.26,4.26,0,0,1,2.3.65c.17.11.35.22.51.34a4.77,4.77,0,0,1,1.17,6.8,14.69,14.69,0,0,1-1.69,1.93q-4.95,5-9.94,9.92a19.66,19.66,0,0,1-2.15,1.56,57.77,57.77,0,0,1,22.64,30.73c1.85,5.83,3.13,14.4,2.3,17.61H40.41c-1-11.56,4.65-34.16,24.44-48.05-.38-.46-.72-.93-1.13-1.34q-5-5.05-10.1-10.09a5.9,5.9,0,0,0-.5-.5c-2.88-2.45-3.62-6-.27-8.61a4.44,4.44,0,0,1,3.2-.86h0a4.61,4.61,0,0,1,2.45,1c1,.81,2,1.61,2.9,2.5C64.91,7,68.36,10.53,71.83,14c.49.48,1,.92,1.6,1.45,8.49-4.36,17.58-6,26.92-6a58.89,58.89,0,0,1,26.9,6.05c4-4.05,7.88-8,11.82-11.88,1-.94,2-1.78,3.05-2.63a4.41,4.41,0,0,1,2.76-1ZM82.5,44.56a7.32,7.32,0,1,0-7.39,7.36A7.27,7.27,0,0,0,82.5,44.56Zm35.47,0a7.32,7.32,0,0,0,14.63.15A7.32,7.32,0,1,0,118,44.53Z"/><path d="M140.42,189.73v2.94c0,10.06,0,20.12,0,30.19a17.57,17.57,0,0,1-2,9c-3.22,5.61-9.63,8.84-15.54,7.73-7.36-1.4-12-7.67-12.47-13.16-.1-1.32-.26-2.64-.27-4q0-15,0-30v-2.64H90.48c0,.9-.11,1.8-.11,2.7q0,15.45,0,30.89c0,5.38-1.86,9.93-6.25,13.21s-9.42,4.18-14.55,1.9a14.67,14.67,0,0,1-9.21-12,39.75,39.75,0,0,1-.29-5.12c0-9.6,0-19.19,0-28.79v-2.69c-.78-.07-1.37-.17-2-.18-2.89,0-5.78,0-8.66-.06a9.19,9.19,0,0,1-9.21-9c-.07-1.09-.08-2.18-.08-3.27V79.67H160.18c.06.71.16,1.38.16,2q0,48.45,0,96.9a17.79,17.79,0,0,1-.28,3.72,9.13,9.13,0,0,1-8.83,7.33c-2.72.11-5.46.05-8.19.06C142.28,189.74,141.52,189.73,140.42,189.73Z"/><path d="M30.2,129.46c0,11.3-.05,22.61,0,33.92,0,5.05-1.57,9.31-5.44,12.62-9.35,8-22,2-24.34-8.36a17.79,17.79,0,0,1-.42-3.7Q0,129.67,0,95.4A15.21,15.21,0,0,1,7.57,81.74c8.69-5.39,18.53-.25,21.61,7.62a18.35,18.35,0,0,1,1,6.88Z"/><path d="M200.46,129.55c0,11.39,0,22.77,0,34.15,0,6.6-2.94,11.59-8.87,14.52-10,4.94-20.39-3.06-21.17-12-.1-1.09-.14-2.18-.14-3.27q0-33.33,0-66.67c0-4.2.83-8,3.7-11.25,3.94-4.39,8.78-6.5,14.65-5,6.11,1.55,10,5.58,11.43,11.72a20.08,20.08,0,0,1,.41,4.65Q200.49,112.95,200.46,129.55Z"/></g></g></svg>