<svg xmlns="http://www.w3.org/2000/svg" viewBox="0 0 336.95 412.86"><title>apple</title><g id="Layer_2" data-name="Layer 2"><g id="Layer_1-2" data-name="Layer 1"><path d="M250.64,0c2.4,37.51-14.22,65.39-44.26,86.06-11.29,7.77-24.4,10-38.69,8.87,0-3.65-.26-7.37,0-11,2.5-30.33,17.19-53.33,42.49-69.73A90.36,90.36,0,0,1,244.39.66,5.62,5.62,0,0,0,245.8,0Z"/><path d="M337,303.07c-1.59,4.37-2.94,8.41-4.51,12.37a244.84,244.84,0,0,1-31.55,56.39,277.66,277.66,0,0,1-20.22,24.5c-7.57,8.06-17,13.58-28.16,15.31a58.4,58.4,0,0,1-27.42-2.5c-8.15-2.68-16.19-5.7-24.25-8.63-17.42-6.33-34.73-5.55-52,.68q-12.48,4.5-25,8.87c-17.24,6-32.62,2.09-46.11-9.45a145.58,145.58,0,0,1-17.82-18,262.51,262.51,0,0,1-46.16-82A255.16,255.16,0,0,1,.58,237c-1.77-23.18.31-45.88,9-67.63,11.58-29,30.74-50.73,60.23-62.5a83.17,83.17,0,0,1,59.44-1.4c10.14,3.47,20.15,7.34,30.2,11.07,8.25,3.07,16.24,2.24,24.32-.92,9.49-3.7,19.08-7.19,28.74-10.4,29.78-9.92,58.23-6.08,85.43,8.88,10.77,5.92,21.34,16.41,27.69,26.93-30.93,19.58-46.62,47.11-43.91,84.4C284.42,262.42,304.07,287.27,337,303.07Z"/></g></g></svg>