<svg xmlns="http://www.w3.org/2000/svg" viewBox="0 0 234.26 234.2"><title>artificial inteligent</title><g id="Layer_2" data-name="Layer 2"><g id="Layer_1-2" data-name="Layer 1"><path d="M76.29,190.69c-9.3.32-17.34-2.31-23.85-8.8S43.25,167.37,43.59,158H29.22c-1.53,0-3.07,0-4.6,0a8.16,8.16,0,1,1,0-16.32c6.21-.07,12.42,0,18.82,0V125.27H40.72c-10.82,0-21.63,0-32.44,0a8.26,8.26,0,0,1-8-6,7.82,7.82,0,0,1,3.41-8.89A11.46,11.46,0,0,1,9,109c10.47-.13,21-.06,31.42-.06h3V92.58H30c-1.79,0-3.58,0-5.37,0a8.11,8.11,0,0,1-8.22-8.27,8,8,0,0,1,8.16-8c6.21-.08,12.42,0,19,0-.28-9.2,2.27-17.35,8.85-23.89s14.52-9.19,23.9-8.79c0-6.4,0-12.59,0-18.77,0-4.56,3.1-8,7.28-8.39a8.06,8.06,0,0,1,9,8.16c.08,6.21,0,12.42,0,18.8H109V40.62c0-10.82,0-21.63,0-32.44a8.14,8.14,0,0,1,16-2,14.39,14.39,0,0,1,.27,3.29q0,16.61,0,33.2a4.09,4.09,0,0,0,.15.67h16.17q0-8.52,0-17a18.32,18.32,0,0,1,.19-3.56A8.15,8.15,0,0,1,158,24.29c.1,5.36,0,10.73,0,16.09v3.1c9.23-.27,17.37,2.27,23.92,8.87s9.12,14.56,8.8,23.88c6.39,0,12.58,0,18.77,0a8.16,8.16,0,1,1,.13,16.32c-6.2.07-12.4,0-18.76,0v16.36h2.81q15.59,0,31.16,0c5.7,0,9.37,3.18,9.4,8.11s-3.65,8.23-9.29,8.23q-15.58,0-31.16,0h-2.92v16.35c6.27,0,12.46,0,18.65,0a8.16,8.16,0,1,1,.09,16.31c-6.2.07-12.39,0-18.86,0,.29,9.22-2.28,17.28-8.75,23.8s-14.5,9.23-24,8.89v2.54c0,5.45.05,10.9,0,16.35a8.16,8.16,0,1,1-16.32-.05c-.06-6.19,0-12.38,0-18.7H125.34v2.67q0,15.84,0,31.67c0,5.43-3.33,9.07-8.2,9.06s-8.13-3.67-8.14-9.13q0-15.7,0-31.41v-2.87H92.64V194c0,5.19,0,10.39,0,15.58a8.16,8.16,0,1,1-16.31-.09C76.25,203.29,76.29,197.1,76.29,190.69Zm35.41-59.86c0,2.95-.14,5.66,0,8.35a8.28,8.28,0,0,0,8.39,7.91A8.07,8.07,0,0,0,128,139c.07-11.22.16-22.46-.06-33.68A18.37,18.37,0,0,0,111.47,87.4a106.08,106.08,0,0,0-12-.3c-12.42,0-20.49,8-20.52,20.38q0,15.06,0,30.12a14.38,14.38,0,0,0,.33,3.28,8.2,8.2,0,0,0,8.3,6.19,8.08,8.08,0,0,0,7.64-7.54c.13-2.29,0-4.59.08-6.88a11.38,11.38,0,0,1,.32-1.82ZM139,117.18c0,7,0,13.94,0,20.91,0,5.25,3.33,8.92,8,9s8.29-3.74,8.31-9.05q0-21,0-42.07c0-5.14-3.59-8.89-8.22-8.87S139,90.78,139,96C139,103.07,139,110.13,139,117.18Z"/><path d="M95.35,114.24c0-2.79-.08-5.4,0-8a2.75,2.75,0,0,1,3-2.77c3.39,0,6.79-.06,10.18,0,1.74,0,3,.83,3,2.73.06,2.63,0,5.25,0,8Z"/></g></g></svg>