<svg xmlns="http://www.w3.org/2000/svg" viewBox="0 0 259.73 315.8"><title>attach audient </title><g id="Layer_2" data-name="Layer 2"><g id="Layer_1-2" data-name="Layer 1"><path d="M203,107.17H146.68V99c0-8.45.08-16.91,0-25.36a16.8,16.8,0,1,0-33.6.06c-.11,11,0,22.06,0,33.38H56.46v-3.23c0-10.1,0-20.2,0-30.29A73.5,73.5,0,0,1,135.16.17c37.56,2.52,67.69,34.38,68.05,72,.1,10.69,0,21.37,0,32.06C203.22,105.26,203.07,106.25,203,107.17Z"/><path d="M150.41,262.75c21.13,11.58,28.37,29.81,26.33,52.94H83.21c-2.54-20.26,3.25-40.62,26.15-53-9.54-8.12-14.06-18.37-12.52-30.78a32,32,0,0,1,11.91-21.31,33.39,33.39,0,0,1,45.84,3.28C165.17,225.31,168.09,247.31,150.41,262.75Z"/><path d="M259.32,315.8H187.94c.7-15.12-.75-29.69-10.08-43l13.85-10.32c-9.43-8.36-14.15-18.92-11.9-31.93A32.13,32.13,0,0,1,192.32,210a33.46,33.46,0,0,1,45.24,4.18c10.37,11.57,13,33.44-4.41,48.58C254.09,274.23,261.65,292.41,259.32,315.8Z"/><path d="M68.08,262.48l13.6,10.19c-9.21,13.23-10.55,27.81-9.92,43H.52c-2.32-20,2.61-40.13,26.14-53-9.84-8.41-14.32-19-12.37-31.78a32.1,32.1,0,0,1,12-20.5,33.4,33.4,0,0,1,45.57,3.4C82.41,225.31,85.49,246.89,68.08,262.48Z"/><path d="M56.46,118.6h56.71c-.22,4.84,0,9.77-.8,14.49s-5.4,8-10.29,8c-11.6.1-23.21.13-34.82,0a11.23,11.23,0,0,1-10.74-10.2c-.1-1-.05-2.11-.05-3.16C56.46,124.84,56.46,121.92,56.46,118.6Z"/><path d="M146.76,118.6h56.31c0,4.53.38,9-.1,13.33-.56,5.1-5.33,9.13-10.51,9.19-11.72.13-23.45.15-35.17,0a11,11,0,0,1-10.46-9.68C146.48,127.27,146.76,123.06,146.76,118.6Z"/><path d="M82.34,186.28c-2.28,0-4,.07-5.72,0-5.05-.22-7.67-4.63-5-8.88,3.59-5.77,7.42-11.41,11.31-17a5.48,5.48,0,0,1,7.77-1.54,5.63,5.63,0,0,1,1.77,7.74c-.72,1.34-1.67,2.56-2.5,3.84l-2.81,4.4c2.2,0,3.88-.06,5.57,0,5.29.2,7.89,4.59,5.13,9-3.54,5.68-7.29,11.22-11.12,16.7a5.57,5.57,0,0,1-8,1.56c-2.66-1.86-3.19-5-1.34-8.1.78-1.31,1.68-2.55,2.51-3.82S81.3,187.92,82.34,186.28Z"/><path d="M172.65,186.28c-2.45,0-4.19.08-5.93,0-4.87-.25-7.53-4.59-5-8.67,3.62-5.9,7.53-11.62,11.5-17.28a5.45,5.45,0,0,1,7.79-1.38,5.58,5.58,0,0,1,1.59,7.77c-1.51,2.61-3.26,5.07-5.26,8.14,2.3,0,4-.07,5.71,0,5.09.23,7.74,4.57,5.12,8.83-3.57,5.79-7.41,11.42-11.31,17a5.52,5.52,0,0,1-7.77,1.61c-2.73-1.76-3.46-5-1.63-8C168.92,191.75,170.61,189.37,172.65,186.28Z"/></g></g></svg>