<svg xmlns="http://www.w3.org/2000/svg" viewBox="0 0 368.78 235.54"><title>game</title><g id="Layer_2" data-name="Layer 2"><g id="Layer_1-2" data-name="Layer 1"><path d="M368.75,154.56c.23,16.8-.72,32.34-6.71,47.11-6.77,16.69-17.92,28.81-36.16,32.74-14.64,3.15-28.22-.56-41.08-7.57-10-5.44-18.2-13.07-26-21.27-11.76-12.38-25.11-22.7-41.56-27.91-38.56-12.22-72.91-4.7-102.58,23.05-5,4.7-9.6,9.85-14.68,14.46-10.83,9.83-23.17,17-37.78,19.44-23.44,3.87-43-6.57-53.51-28A87.94,87.94,0,0,1,.09,169.69C-1.07,122.08,9.31,77.26,33.71,36.07c10.94-18.45,27.13-30,48-34.85C93.24-1.46,104.36.49,115,5c6.08,2.56,12,5.6,17.81,8.69,18.76,9.91,38.77,13.36,59.77,12a108.79,108.79,0,0,0,47.92-14.55c8.79-5.06,18.13-8.92,28.27-10.49,12.5-1.93,23.93,1.31,35.12,6.61,15,7.11,25.28,18.82,33.43,32.79,13,22.35,20.93,46.59,26.19,71.77A252,252,0,0,1,368.75,154.56ZM79.87,63.26v27.3H53.05v27.18H80.2V144.6h27.28V117.54h26.94V90.39H107.16V63.26ZM302,117.87A13.66,13.66,0,0,0,315.74,104,13.87,13.87,0,0,0,302,90.11a14.1,14.1,0,0,0-14,14.13A13.87,13.87,0,0,0,302,117.87Zm-31.26,31.34a13.88,13.88,0,0,0-.09-27.76,13.88,13.88,0,1,0,.09,27.76Zm-31.33-31.35A13.8,13.8,0,0,0,253.24,104,14.09,14.09,0,0,0,239.4,90.1a13.93,13.93,0,0,0-13.92,14.14A13.66,13.66,0,0,0,239.43,117.86Zm17.36-44.94A13.85,13.85,0,0,0,270.7,86.67a14.07,14.07,0,0,0,13.85-13.9,13.88,13.88,0,0,0-14.19-13.85A13.7,13.7,0,0,0,256.79,72.92Z"/></g></g></svg>