<svg xmlns="http://www.w3.org/2000/svg" viewBox="0 0 359.99 350.19"><title>website</title><g id="Layer_2" data-name="Layer 2"><g id="Layer_1-2" data-name="Layer 1"><path d="M248.75,223.24H111.27a353.85,353.85,0,0,1,0-95.66h137.5A354.66,354.66,0,0,1,248.75,223.24Z"/><path d="M115.37,103.16C122,75.28,130.47,48.55,148.65,26a56.37,56.37,0,0,1,17.89-15.13c9.41-4.87,18.72-4.55,27.92.5,8,4.43,14.26,10.88,19.69,18.14,11.37,15.17,18.65,32.36,24.25,50.31,2.36,7.6,4.22,15.36,6.39,23.35Z"/><path d="M115.39,247.53H244.68c-1.59,6.16-3,12.17-4.7,18.09-4.91,17.09-11.34,33.55-21,48.61-5.2,8.15-11.2,15.63-19,21.52-13.26,10-26.33,10.35-39.52.22a75.73,75.73,0,0,1-14-14C129.74,300,121.58,274.29,115.39,247.53Z"/><path d="M353.47,127.63a178.17,178.17,0,0,1,0,95.58H273a387,387,0,0,0,0-95.58Z"/><path d="M6.53,223.12a177.82,177.82,0,0,1,0-95.59H87a386.54,386.54,0,0,0,0,95.59Z"/><path d="M220,0A180.54,180.54,0,0,1,344.7,103.22H269.35C260.89,65.4,249.17,29,220,0Z"/><path d="M139.14.5c-26.5,26.74-38.58,60.38-46.88,95.88-.52,2.18-1,4.38-1.5,6.76H15.33A179.4,179.4,0,0,1,139.14.5Z"/><path d="M220.79,350.19c20.77-20.43,32.4-45.78,40.83-72.85,3-9.74,5.31-19.73,8-29.81h75.1a178.44,178.44,0,0,1-46.24,63A174.65,174.65,0,0,1,220.79,350.19Z"/><path d="M15.27,247.48H90.63c8.49,37.83,20.16,74.17,48.65,102.45-13,.71-53.43-19-73.81-36A181.37,181.37,0,0,1,15.27,247.48Z"/></g></g></svg>